<?xml version="1.0" standalone="no"?>
<!DOCTYPE svg PUBLIC "-//W3C//DTD SVG 20010904//EN"
 "http://www.w3.org/TR/2001/REC-SVG-20010904/DTD/svg10.dtd">
<svg version="1.0" xmlns="http://www.w3.org/2000/svg"
 width="1920.000000pt" height="1920.000000pt" viewBox="0 0 1920.000000 1920.000000"
 preserveAspectRatio="xMidYMid meet">

<g transform="translate(0.000000,1920.000000) scale(0.100000,-0.100000)"
fill="#000000" stroke="none">
<path d="M9220 14809 c-996 -75 -1939 -426 -2735 -1019 -389 -289 -766 -663
-1057 -1048 -816 -1080 -1176 -2439 -1007 -3802 99 -798 384 -1562 834 -2235
204 -306 385 -526 655 -795 427 -428 886 -756 1415 -1011 915 -441 1916 -605
2935 -478 887 110 1733 450 2455 989 389 289 766 663 1057 1048 816 1080 1176
2439 1007 3802 -99 798 -384 1562 -834 2235 -204 306 -385 526 -655 795 -427
428 -886 756 -1415 1011 -607 293 -1233 459 -1920 509 -163 12 -569 11 -735
-1z m715 -954 c753 -64 1418 -293 2024 -697 1508 -1005 2218 -2829 1785 -4588
-115 -468 -316 -924 -587 -1330 -1117 -1678 -3236 -2347 -5117 -1615 -1275
496 -2257 1615 -2584 2945 -215 874 -151 1793 184 2630 312 780 885 1481 1601
1958 789 526 1760 777 2694 697z"/>
<path d="M9345 13560 c-841 -59 -1611 -364 -2262 -895 -142 -116 -397 -369
-519 -515 -487 -582 -789 -1260 -893 -2001 -86 -610 -28 -1224 169 -1811 203
-604 527 -1119 986 -1569 327 -319 651 -547 1062 -747 73 -35 135 -62 138 -59
7 7 26 322 74 1232 37 708 34 1143 -10 1324 -40 164 -93 246 -359 550 -182
209 -259 318 -336 476 -114 233 -165 469 -165 763 0 314 61 614 192 950 170
436 368 701 608 816 178 86 406 72 587 -35 79 -47 226 -197 296 -300 190 -285
352 -719 412 -1104 22 -139 30 -388 16 -513 -45 -409 -174 -687 -482 -1037
-195 -221 -265 -311 -309 -397 -118 -225 -125 -460 -55 -1833 14 -269 30 -562
35 -650 5 -88 12 -222 16 -297 l7 -137 126 -30 c502 -121 1076 -140 1598 -51
170 29 373 80 373 93 0 7 3 35 5 62 5 52 10 140 50 895 35 665 45 938 45 1250
0 283 -7 380 -40 510 -40 155 -73 221 -200 400 -143 201 -184 308 -200 517 -8
111 0 533 15 828 5 108 20 385 30 580 8 154 34 585 50 835 7 124 17 282 21
353 6 118 14 152 28 128 6 -10 9 -160 30 -1609 l13 -873 23 -24 c43 -46 121
-24 134 37 3 13 12 183 21 378 9 195 31 677 50 1070 19 393 37 776 40 850 7
147 11 180 24 180 12 0 19 -319 32 -1474 8 -717 14 -1014 22 -1027 29 -47 114
-48 144 -2 14 21 17 63 20 277 1 138 8 692 14 1231 6 539 13 983 16 988 13 21
22 -14 27 -115 4 -62 22 -439 41 -838 81 -1689 71 -1529 96 -1556 43 -46 124
-23 133 39 3 18 13 577 21 1242 9 666 18 1216 21 1224 12 38 24 -18 34 -164 5
-88 12 -196 15 -240 5 -85 51 -855 60 -1015 25 -446 37 -794 39 -1060 1 -295
0 -320 -21 -402 -33 -127 -71 -203 -183 -363 -55 -79 -116 -177 -135 -218 -44
-96 -80 -233 -95 -372 -15 -130 -8 -653 15 -1115 21 -422 53 -1018 61 -1133 8
-115 -8 -113 169 -24 411 205 718 423 1039 736 665 652 1071 1487 1171 2411
34 317 28 653 -16 969 -101 724 -395 1394 -864 1968 -116 142 -369 397 -515
519 -616 515 -1333 821 -2130 909 -168 18 -516 26 -675 15z"/>
</g>
</svg>
